<?xml version="1.0" encoding="UTF-8" standalone="no"?>
<svg width="74px" height="60px" viewBox="0 0 74 60" version="1.1" xmlns="http://www.w3.org/2000/svg" xmlns:xlink="http://www.w3.org/1999/xlink" xmlns:sketch="http://www.bohemiancoding.com/sketch/ns">
    <!-- Generator: Sketch 3.4.2 (15855) - http://www.bohemiancoding.com/sketch -->
    <title>wordmark</title>
    <desc>Created with Sketch.</desc>
    <defs>
        <path id="path-1" d="M0,0.00280991736 L73.8630423,0.00280991736 L73.8630423,60 L0,60 L0,0.00280991736 Z"></path>
        <path id="path-3" d="M0,0.00280991736 L73.8630423,0.00280991736 L73.8630423,60 L0,60 L0,0.00280991736 Z"></path>
    </defs>
    <g id="Page-1" stroke="none" stroke-width="1" fill="none" fill-rule="evenodd" sketch:type="MSPage">
        <g id="desktop_transactional" sketch:type="MSArtboardGroup" transform="translate(-313.000000, -16.000000)">
            <g id="option-A" sketch:type="MSLayerGroup" transform="translate(55.000000, 16.000000)">
                <g id="wordmark" transform="translate(258.000000, 0.000000)">
                    <g id="Group-3">
                        <mask id="mask-2" sketch:name="Clip 2" fill="white">
                            <use xlink:href="#path-1"></use>
                        </mask>
                        <g id="Clip-2"></g>
                        <path d="M13.2941247,42.5008099 L16.6176971,42.5008099 L16.6176971,50.8337025 C16.6176971,53.8335372 15.9658708,56.1120496 14.6651849,57.6667603 C13.3628508,59.2213058 11.2442094,59.9999835 8.30876615,59.9999835 C5.37200445,59.9999835 3.25352784,59.2213058 1.95251225,57.6667603 C0.650507795,56.1120496 0,53.8335372 0,50.8337025 L0,9.0857686 C0,6.0857686 0.650507795,3.82279339 1.95251225,2.29436364 C3.25352784,0.767090909 5.37200445,0.00279338843 8.30876615,0.00279338843 C11.2442094,0.00279338843 13.3628508,0.767090909 14.6651849,2.29436364 C15.9658708,3.82279339 16.6176971,6.0857686 16.6176971,9.0857686 L16.6176971,17.5019669 L13.2941247,17.5019669 L13.2941247,9.0857686 C13.2941247,7.14180165 12.9059955,5.66907438 12.1308909,4.66923967 C11.3546325,3.66940496 10.0809755,3.16923967 8.30876615,3.16923967 C6.53540312,3.16923967 5.2617461,3.66940496 4.48680624,4.66923967 C3.71021826,5.66907438 3.32357238,7.14180165 3.32357238,9.0857686 L3.32357238,50.8337025 C3.32357238,52.7789917 3.71021826,54.2646116 4.48680624,55.2918843 C5.2617461,56.3204793 6.53540312,56.8335372 8.30876615,56.8335372 C10.0809755,56.8335372 11.3546325,56.3204793 12.1308909,55.2918843 C12.9059955,54.2646116 13.2941247,52.7789917 13.2941247,50.8337025 L13.2941247,42.5008099 Z" id="Fill-1" fill="#3696D2" sketch:type="MSShapeGroup" mask="url(#mask-2)"></path>
                    </g>
                    <path d="M34.0661719,59.1667107 L20.7720472,59.1667107 L20.7720472,0.836132231 L24.0956196,0.836132231 L24.0956196,55.9167934 L34.0661719,55.9167934 L34.0661719,59.1667107 Z" id="Fill-4" fill="#3696D2" sketch:type="MSShapeGroup"></path>
                    <path d="M42.5399795,59.1667107 L42.5399795,34.9179504 C40.2136766,34.640595 38.5232134,33.7239008 37.4717212,32.1678678 C36.4187457,30.6133223 35.8929996,28.5014215 35.8929996,25.8349752 L35.8929996,0.836132231 L39.2164071,0.836132231 L39.2164071,25.8349752 C39.2164071,27.7800992 39.6035474,29.265719 40.3798058,30.2929917 C41.1549105,31.3215868 42.4285675,31.8346446 44.2017657,31.8346446 C45.9738102,31.8346446 47.2474673,31.3215868 48.0240552,30.2929917 C48.7988303,29.265719 49.1869595,27.7800992 49.1869595,25.8349752 L49.1869595,0.836132231 L52.5105318,0.836132231 L52.5105318,25.8349752 C52.5105318,28.5014215 51.9836321,30.6133223 50.9321399,32.1678678 C49.8791644,33.7239008 48.1900196,34.640595 45.8635519,34.9179504 L45.8635519,59.1667107 L42.5399795,59.1667107 Z" id="Fill-6" fill="#3696D2" sketch:type="MSShapeGroup"></path>
                    <g id="Group-10">
                        <mask id="mask-4" sketch:name="Clip 9" fill="white">
                            <use xlink:href="#path-3"></use>
                        </mask>
                        <g id="Clip-9"></g>
                        <path d="M70.5395359,9.16900826 C70.5395359,7.22504132 70.1514067,5.73958678 69.376302,4.71099174 C68.6000437,3.68355372 67.3263866,3.16933884 65.5541773,3.16933884 C63.7808143,3.16933884 62.5071572,3.68355372 61.7322174,4.71099174 C60.9556294,5.73958678 60.5689835,7.22504132 60.5689835,9.16900826 L60.5689835,35.4177686 L65.5541773,35.5010744 C67.3263866,35.5571074 68.6000437,35.0571074 69.376302,34.0012397 C70.1514067,32.9465289 70.5395359,31.4466942 70.5395359,29.501405 L70.5395359,9.16900826 Z M57.2454111,59.1666942 L57.2454111,9.16900826 C57.2454111,6.16917355 57.8959189,3.89181818 59.1979234,2.33595041 C60.498939,0.781404959 62.6174156,0.00272727273 65.5541773,0.00272727273 C68.4896205,0.00272727273 70.6082619,0.781404959 71.910596,2.33595041 C73.211282,3.89181818 73.8631082,6.16917355 73.8631082,9.16900826 L73.8631082,29.501405 C73.8631082,32.5012397 73.211282,34.7797521 71.910596,36.3342975 C70.6082619,37.8903306 68.5453265,38.667686 65.7203065,38.667686 L60.5689835,38.667686 L60.5689835,59.1666942 L57.2454111,59.1666942 Z" id="Fill-8" fill="#3696D2" sketch:type="MSShapeGroup" mask="url(#mask-4)"></path>
                    </g>
                </g>
            </g>
        </g>
    </g>
</svg>