<?xml version="1.0" encoding="UTF-8" standalone="no"?>
<svg width="38px" height="31px" viewBox="0 0 38 31" version="1.1" xmlns="http://www.w3.org/2000/svg" xmlns:xlink="http://www.w3.org/1999/xlink" xmlns:sketch="http://www.bohemiancoding.com/sketch/ns">
    <!-- Generator: Sketch 3.4.2 (15855) - http://www.bohemiancoding.com/sketch -->
    <title>logo</title>
    <desc>Created with Sketch.</desc>
    <defs></defs>
    <g id="Site-pages" stroke="none" stroke-width="1" fill="none" fill-rule="evenodd" sketch:type="MSPage">
        <g id="Homepage" sketch:type="MSArtboardGroup" transform="translate(-11.000000, -54.000000)" fill="#F5F4EE">
            <g id="header" sketch:type="MSLayerGroup" transform="translate(0.000000, 48.000000)">
                <g id="logo" transform="translate(11.000000, 6.000000)" sketch:type="MSShapeGroup">
                    <path d="M6.84739521,21.9188235 L8.55602994,21.9188235 L8.55602994,26.1980772 C8.55602994,27.7386176 8.22097006,28.9086397 7.55221557,29.7070037 C6.88266467,30.5053676 5.79340719,30.9052904 4.28432934,30.9052904 C2.77445509,30.9052904 1.6851976,30.5053676 1.01632934,29.7070037 C0.346892216,28.9086397 0.0125149701,27.7386176 0.0125149701,26.1980772 L0.0125149701,4.75918382 C0.0125149701,3.21864338 0.346892216,2.05648529 1.01632934,1.27156985 C1.6851976,0.487224265 2.77445509,0.0948235294 4.28432934,0.0948235294 C5.79340719,0.0948235294 6.88266467,0.487224265 7.55221557,1.27156985 C8.22097006,2.05648529 8.55602994,3.21864338 8.55602994,4.75918382 L8.55602994,9.08117647 L6.84739521,9.08117647 L6.84739521,4.75918382 C6.84739521,3.76091544 6.64783832,3.00460662 6.24929341,2.49116912 C5.85017964,1.97761765 5.19541916,1.72084191 4.28432934,1.72084191 C3.37244311,1.72084191 2.71768263,1.97761765 2.3192515,2.49116912 C1.92002395,3.00460662 1.72126347,3.76091544 1.72126347,4.75918382 L1.72126347,26.1980772 C1.72126347,27.1970294 1.92002395,27.9599485 2.3192515,28.4874044 C2.71768263,29.0156581 3.37244311,29.2791581 4.28432934,29.2791581 C5.19541916,29.2791581 5.85017964,29.0156581 6.24929341,28.4874044 C6.64783832,27.9599485 6.84739521,27.1970294 6.84739521,26.1980772 L6.84739521,21.9188235" id="Fill-1"></path>
                    <path d="M17.5268743,30.4773309 L10.691994,30.4773309 L10.691994,0.522669118 L12.4006287,0.522669118 L12.4006287,28.8083456 L17.5268743,28.8083456 L17.5268743,30.4773309" id="Fill-2"></path>
                    <path d="M21.8834491,30.4773309 L21.8834491,18.0247904 C20.6874731,17.8823272 19.8183653,17.4116287 19.2777186,16.6125809 C18.7363892,15.8142169 18.4660659,14.7297868 18.4660659,13.3604301 L18.4660659,0.522669118 L20.1747006,0.522669118 L20.1747006,13.3604301 C20.1747006,14.3592684 20.3736886,15.1221875 20.7728024,15.6497574 C21.1713473,16.178011 21.8261078,16.4413971 22.7377665,16.4413971 C23.6488563,16.4413971 24.3037305,16.178011 24.7029581,15.6497574 C25.1013892,15.1221875 25.3009461,14.3592684 25.3009461,13.3604301 L25.3009461,0.522669118 L27.0095808,0.522669118 L27.0095808,13.3604301 C27.0095808,14.7297868 26.7386886,15.8142169 26.1980419,16.6125809 C25.6567126,17.4116287 24.7882874,17.8823272 23.5921976,18.0247904 L23.5921976,30.4773309 L21.8834491,30.4773309" id="Fill-3"></path>
                    <path d="M29.4439701,30.4773309 L29.4439701,4.80192279 C29.4439701,3.26138235 29.7783473,2.09193015 30.4477844,1.29288235 C31.1166527,0.494632353 32.2057964,0.0948235294 33.7156707,0.0948235294 C35.2248623,0.0948235294 36.3141198,0.494632353 36.9836707,1.29288235 C37.6523114,2.09193015 37.987485,3.26138235 37.987485,4.80192279 L37.987485,15.2432243 C37.987485,16.7837647 37.6523114,17.9539007 36.9836707,18.7521507 C36.3141198,19.5511985 35.2535329,19.9504375 33.8011138,19.9504375 L31.1526048,19.9504375 L31.1526048,30.4773309 L29.4439701,30.4773309 L29.4439701,30.4773309 Z M36.2787365,4.80192279 C36.2787365,3.80365441 36.0791796,3.04073529 35.6807485,2.51259559 C35.2816347,1.98502574 34.6267605,1.72084191 33.7156707,1.72084191 C32.8038982,1.72084191 32.1491377,1.98502574 31.7507066,2.51259559 C31.351479,3.04073529 31.1526048,3.80365441 31.1526048,4.80192279 L31.1526048,18.2814522 L33.7156707,18.3243051 C34.6267605,18.3530257 35.2816347,18.096364 35.6807485,17.5539779 C36.0791796,17.0123897 36.2787365,16.2421765 36.2787365,15.2432243 L36.2787365,4.80192279 L36.2787365,4.80192279 Z" id="Fill-4"></path>
                </g>
            </g>
        </g>
    </g>
</svg>